<svg width="373" height="120" viewBox="0 0 373 120" fill="none" xmlns="http://www.w3.org/2000/svg">
<rect width="373" height="120" fill="#1E1E1E"/>
<rect width="373" height="120" fill="white"/>
<g clip-path="url(#clip0_0_1)">
<path d="M120 90.9374C120 77.1449 110.389 65.6043 97.5 62.6278C95.3896 62.1412 93.1959 61.8749 90.9374 61.8749C90.3065 61.8749 89.6831 61.9022 89.0625 61.9416C74.9784 62.8396 63.6263 73.7633 62.0645 87.6563C61.9435 88.7335 61.8751 89.8274 61.8751 90.9374C61.8751 93.028 62.101 95.0653 62.52 97.0312C65.3214 110.155 76.9773 120 90.9374 120C106.988 120 120 106.988 120 90.9374ZM90.9374 110.156C80.3231 110.156 71.7186 101.552 71.7186 90.9374C71.7186 80.3231 80.3231 71.7186 90.9374 71.7186C101.552 71.7186 110.156 80.3231 110.156 90.9374C110.156 101.552 101.552 110.156 90.9374 110.156Z" fill="black"/>
<path d="M94.6875 77.8125H88.1251V88.1251H77.8125V94.6875H94.6875V88.1251V77.8125Z" fill="black"/>
<path d="M21.5625 0C19.7531 0 18.2814 1.47196 18.2814 3.28118V10.7812V18.75C18.2814 20.5594 19.7531 22.0312 21.5625 22.0312H24.3751C26.1845 22.0312 27.6563 20.5592 27.6563 18.75V10.7812V3.28118C27.6563 1.47196 26.1845 0 24.3749 0H21.5625Z" fill="black"/>
<path d="M73.1251 0C71.3157 0 69.8439 1.47196 69.8439 3.28118V10.7812V18.75C69.8439 20.5594 71.3159 22.0312 73.1251 22.0312H75.9377C77.7471 22.0312 79.2188 20.5592 79.2188 18.75V10.7812V3.28118C79.2188 1.47196 77.7469 0 75.9375 0H73.1251Z" fill="black"/>
<path d="M7.5 97.0312H53.9063C53.4488 94.7567 53.2059 92.4065 53.2059 90C53.2059 89.2116 53.2406 88.4316 53.2912 87.6563H14.0625C10.9557 87.6563 8.43745 85.138 8.43745 82.0312V37.0312H89.0625V54.4247C89.6831 54.3927 90.3084 54.3751 90.9375 54.3751C93.18 54.3751 95.3708 54.5925 97.5 54.991V18.2812C97.5 14.1392 94.142 10.7812 90 10.7812H83.9063V18.75C83.9063 23.1441 80.3318 26.7188 75.9375 26.7188H73.1249C68.7308 26.7188 65.1561 23.1441 65.1561 18.75V10.7812H32.3437V18.75C32.3437 23.1441 28.769 26.7188 24.3749 26.7188H21.5624C17.1682 26.7188 13.5935 23.1441 13.5935 18.75V10.7812H7.5C3.35804 10.7812 0 14.1394 0 18.2812V89.5312C0 93.6731 3.35804 97.0312 7.5 97.0312Z" fill="black"/>
<path d="M26.4263 58.5357C30.5364 58.5357 33.8682 55.2038 33.8682 51.0937C33.8682 46.9836 30.5364 43.6518 26.4263 43.6518C22.3162 43.6518 18.9843 46.9836 18.9843 51.0937C18.9843 55.2038 22.3162 58.5357 26.4263 58.5357Z" fill="black"/>
<path d="M48.75 58.5357C52.8601 58.5357 56.192 55.2038 56.192 51.0937C56.192 46.9836 52.8601 43.6518 48.75 43.6518C44.6399 43.6518 41.308 46.9836 41.308 51.0937C41.308 55.2038 44.6399 58.5357 48.75 58.5357Z" fill="black"/>
<path d="M71.0739 58.5357C75.184 58.5357 78.5159 55.2038 78.5159 51.0937C78.5159 46.9836 75.184 43.6518 71.0739 43.6518C66.9638 43.6518 63.632 46.9836 63.632 51.0937C63.632 55.2038 66.9638 58.5357 71.0739 58.5357Z" fill="black"/>
<path d="M48.75 81.0355C52.86 81.0355 56.1918 77.7037 56.1918 73.5937C56.1918 69.4838 52.86 66.152 48.75 66.152C44.64 66.152 41.3082 69.4838 41.3082 73.5937C41.3082 77.7037 44.64 81.0355 48.75 81.0355Z" fill="black"/>
<path d="M26.4263 81.0355C30.5362 81.0355 33.868 77.7037 33.868 73.5937C33.868 69.4838 30.5362 66.152 26.4263 66.152C22.3163 66.152 18.9845 69.4838 18.9845 73.5937C18.9845 77.7037 22.3163 81.0355 26.4263 81.0355Z" fill="black"/>
</g>
<path d="M134.976 74.768C133.611 74.768 132.224 74.7253 130.816 74.64C129.408 74.5973 128.021 74.4907 126.656 74.32C123.627 74.064 122.112 73.0827 122.112 71.376C122.112 70.5227 122.453 69.4987 123.136 68.304C124.757 65.36 126.421 62.4373 128.128 59.536C129.835 56.592 131.52 53.648 133.184 50.704C133.696 49.7653 134.357 48.592 135.168 47.184C135.979 45.776 136.789 44.432 137.6 43.152C137.984 42.5547 138.539 41.9573 139.264 41.36C139.989 40.72 140.736 40.3147 141.504 40.144C140.608 40.1867 139.456 40.2507 138.048 40.336C136.683 40.4213 135.275 40.592 133.824 40.848C132.416 41.0613 131.136 41.424 129.984 41.936C128.875 42.4053 128.085 43.0667 127.616 43.92C127.445 44.304 127.296 44.688 127.168 45.072C127.04 45.456 126.976 45.84 126.976 46.224C126.976 47.2053 127.317 47.9093 128 48.336C128.043 48.336 128.064 48.3787 128.064 48.464C128.064 48.5493 127.979 48.6347 127.808 48.72C127.68 48.8053 127.552 48.8267 127.424 48.784C127.04 48.5707 126.571 48.0587 126.016 47.248C125.461 46.3947 125.12 45.6907 124.992 45.136C124.864 44.624 124.8 44.1547 124.8 43.728C124.8 42.6187 125.163 41.7653 125.888 41.168C126.613 40.528 127.531 40.08 128.64 39.824C129.749 39.5253 130.88 39.3547 132.032 39.312C133.184 39.2267 134.208 39.184 135.104 39.184C137.365 39.184 139.627 39.1627 141.888 39.12C144.149 39.0347 146.389 38.992 148.608 38.992C149.589 38.992 150.549 38.992 151.488 38.992C152.469 38.992 153.429 39.0347 154.368 39.12C155.435 39.1627 156.16 39.376 156.544 39.76C156.971 40.144 157.184 40.6133 157.184 41.168C157.184 41.8507 156.949 42.64 156.48 43.536C156.053 44.3893 155.648 45.1787 155.264 45.904C155.093 46.2453 154.816 46.5013 154.432 46.672C154.048 46.8 153.899 46.672 153.984 46.288C154.197 45.4347 154.304 44.5813 154.304 43.728C154.304 42.96 154.155 42.2773 153.856 41.68C153.6 41.04 153.088 40.592 152.32 40.336C151.595 40.1227 150.464 40.016 148.928 40.016C148.373 40.016 147.797 40.0373 147.2 40.08C146.645 40.08 146.069 40.1013 145.472 40.144C143.765 40.272 142.613 40.72 142.016 41.488C140.608 43.4507 139.243 45.584 137.92 47.888C136.64 50.1493 135.403 52.304 134.208 54.352C134.165 54.4373 134.144 54.544 134.144 54.672C134.144 54.928 134.336 55.056 134.72 55.056C136.213 55.056 137.813 55.0773 139.52 55.12C141.269 55.1627 142.805 55.1627 144.128 55.12C144.427 55.0773 144.875 55.0347 145.472 54.992C146.112 54.9493 146.752 54.864 147.392 54.736C148.075 54.608 148.587 54.4587 148.928 54.288C149.141 54.16 149.269 54.096 149.312 54.096C149.568 54.096 149.568 54.352 149.312 54.864C149.099 55.3333 148.715 55.824 148.16 56.336C147.648 56.8053 147.051 57.04 146.368 57.04C144.277 57.04 142.507 56.9973 141.056 56.912C139.648 56.8267 138.069 56.784 136.32 56.784C135.893 56.784 135.445 56.784 134.976 56.784C134.507 56.784 133.995 56.8053 133.44 56.848C133.013 56.8907 132.715 57.0613 132.544 57.36C132.117 58.128 131.733 58.832 131.392 59.472C131.093 60.112 130.709 60.8587 130.24 61.712C129.899 62.352 129.472 63.184 128.96 64.208C128.491 65.1893 128.064 66.2133 127.68 67.28C127.296 68.304 127.104 69.2 127.104 69.968C127.104 71.2907 127.723 72.208 128.96 72.72C130.197 73.1893 131.712 73.4453 133.504 73.488C135.979 73.488 138.411 73.2533 140.8 72.784C143.232 72.272 145.493 71.44 147.584 70.288C149.717 69.0933 151.573 67.4933 153.152 65.488C153.237 65.4027 153.301 65.36 153.344 65.36C153.472 65.36 153.557 65.488 153.6 65.744C153.643 65.9573 153.621 66.128 153.536 66.256C152.213 67.8773 150.933 69.456 149.696 70.992C148.459 72.4853 147.221 73.424 145.984 73.808C145.088 74.064 143.637 74.2773 141.632 74.448C139.627 74.6613 137.408 74.768 134.976 74.768ZM194.723 90.256C193.016 90.256 191.331 89.7653 189.667 88.784C188.003 87.8027 186.403 86.544 184.867 85.008C183.331 83.5147 181.901 81.9787 180.579 80.4C179.256 78.8213 178.083 77.456 177.059 76.304C175.736 74.768 174.499 73.36 173.347 72.08C172.195 70.7573 171 69.6907 169.763 68.88C168.525 68.0693 167.117 67.664 165.539 67.664C164.216 67.664 162.893 67.9413 161.571 68.496C160.291 69.008 159.16 69.7547 158.179 70.736C157.197 71.6747 156.515 72.784 156.131 74.064C156.003 74.576 155.875 75.0667 155.747 75.536C155.619 76.0053 155.405 76.432 155.107 76.816C154.808 77.2427 154.381 77.456 153.827 77.456C153.4 77.456 152.995 77.2853 152.611 76.944C152.184 76.6027 151.971 76.1547 151.971 75.6C151.971 75.088 152.12 74.5973 152.419 74.128C153.571 72.2933 155.213 70.224 157.347 67.92C159.523 65.5733 161.976 63.1413 164.707 60.624C167.437 58.1067 170.232 55.632 173.091 53.2C175.949 50.7253 178.659 48.4427 181.219 46.352C183.821 44.2187 186.04 42.4053 187.875 40.912C185.869 40.8693 183.843 40.848 181.795 40.848C179.789 40.8053 177.784 40.784 175.779 40.784C175.139 40.784 174.243 40.8267 173.091 40.912C171.981 40.9973 170.851 41.1893 169.699 41.488C168.547 41.7867 167.587 42.2773 166.819 42.96C166.051 43.6427 165.709 44.56 165.795 45.712C165.837 46.0533 165.965 46.5227 166.179 47.12C166.392 47.6747 166.52 48.016 166.563 48.144L165.923 48.656C165.667 48.1867 165.347 47.6533 164.963 47.056C164.579 46.416 164.237 45.7973 163.939 45.2C163.64 44.6027 163.469 44.1547 163.427 43.856C163.427 43.7707 163.405 43.664 163.363 43.536C163.363 43.408 163.363 43.28 163.363 43.152C163.363 42.6827 163.448 42.2133 163.619 41.744C163.789 41.232 164.088 40.784 164.515 40.4C165.197 39.8027 166.179 39.4187 167.459 39.248C168.781 39.0773 170.125 38.992 171.491 38.992C172.557 38.992 173.56 39.0133 174.499 39.056C175.48 39.0987 176.269 39.12 176.867 39.12H191.779C191.821 39.12 191.843 39.184 191.843 39.312C191.843 39.44 191.8 39.632 191.715 39.888C191.629 40.144 191.544 40.3147 191.459 40.4C186.083 44.2827 180.771 48.5493 175.523 53.2C170.317 57.808 165.325 62.6933 160.547 67.856C161.827 67.1733 163.021 66.6827 164.131 66.384C165.283 66.0853 166.371 65.936 167.395 65.936C169.187 65.936 170.851 66.384 172.387 67.28C173.965 68.1333 175.501 69.3493 176.995 70.928C178.531 72.5067 180.131 74.32 181.795 76.368C183.501 78.3733 185.229 80.2507 186.979 82C188.771 83.792 190.477 85.2213 192.099 86.288C193.72 87.3547 195.107 87.888 196.259 87.888C197.667 87.888 198.691 87.5467 199.331 86.864C199.971 86.1813 200.291 85.328 200.291 84.304C200.291 83.024 199.864 81.7013 199.011 80.336C198.712 79.8667 198.392 79.44 198.051 79.056C197.752 78.672 197.496 78.3733 197.283 78.16C197.24 78.0747 197.347 77.9253 197.603 77.712C197.901 77.5413 198.072 77.4773 198.115 77.52C198.584 77.8187 199.032 78.1387 199.459 78.48C199.885 78.8213 200.269 79.2267 200.611 79.696C201.08 80.2507 201.4 80.848 201.571 81.488C201.784 82.128 201.891 82.7467 201.891 83.344C201.891 84.5387 201.549 85.648 200.867 86.672C200.227 87.7387 199.352 88.592 198.243 89.232C197.176 89.872 196.003 90.2133 194.723 90.256ZM201.835 75.856C199.573 75.856 197.397 75.5147 195.307 74.832C193.259 74.192 191.595 73.104 190.315 71.568C189.035 70.032 188.395 67.9627 188.395 65.36C188.395 62.5867 188.928 59.8773 189.995 57.232C191.061 54.5867 192.491 52.1333 194.283 49.872C196.075 47.568 198.08 45.584 200.299 43.92C202.261 42.4267 204.523 41.2107 207.083 40.272C209.685 39.3333 212.267 38.864 214.827 38.864C215.893 38.864 216.896 38.9493 217.835 39.12C218.773 39.248 219.733 39.5467 220.715 40.016C221.568 40.4 222.251 40.8907 222.763 41.488C223.275 42.0427 223.531 42.6827 223.531 43.408C223.531 43.4933 223.531 43.6 223.531 43.728C223.531 43.856 223.509 43.9627 223.467 44.048C223.296 44.7307 222.891 45.52 222.251 46.416C221.653 47.2693 221.184 48.1653 220.843 49.104C220.8 49.2747 220.565 49.424 220.139 49.552C219.712 49.6373 219.541 49.5947 219.627 49.424C219.968 48.8693 220.224 48.1867 220.395 47.376C220.608 46.5653 220.715 45.7547 220.715 44.944C220.715 44.3467 220.651 43.792 220.523 43.28C220.437 42.7253 220.267 42.256 220.011 41.872C219.584 41.104 218.923 40.5707 218.027 40.272C217.131 39.9733 216.171 39.824 215.147 39.824C214.165 39.824 213.184 39.9307 212.203 40.144C211.221 40.3573 210.368 40.592 209.643 40.848C207.168 41.744 204.8 43.152 202.539 45.072C200.533 46.8213 198.741 48.848 197.163 51.152C195.627 53.456 194.411 55.824 193.515 58.256C192.619 60.688 192.171 63.0133 192.171 65.232C192.171 67.4933 192.661 69.2853 193.643 70.608C194.624 71.9307 195.904 72.8693 197.483 73.424C199.061 73.9787 200.768 74.256 202.603 74.256C204.224 74.256 205.824 74.0853 207.403 73.744C209.024 73.4027 210.496 72.976 211.819 72.464C214.08 71.6107 216.107 70.5653 217.899 69.328C219.733 68.0907 221.44 66.4907 223.019 64.528C223.232 64.3147 223.381 64.208 223.467 64.208C223.595 64.208 223.659 64.2933 223.659 64.464C223.659 64.8053 223.488 65.2107 223.147 65.68C221.696 67.6427 220.053 69.2853 218.219 70.608C216.384 71.9307 214.421 73.0187 212.331 73.872C210.923 74.4267 209.28 74.896 207.403 75.28C205.568 75.664 203.712 75.856 201.835 75.856ZM233.792 74.192C233.366 74.192 233.003 74.1067 232.704 73.936C232.406 73.7653 232.256 73.4453 232.256 72.976C232.256 72.3787 232.406 71.696 232.704 70.928C233.003 70.16 233.344 69.4133 233.728 68.688C234.112 67.92 234.454 67.3013 234.752 66.832C233.259 68.4107 231.702 69.904 230.08 71.312C229.27 71.9947 228.374 72.6347 227.392 73.232C226.411 73.8293 225.366 74.128 224.256 74.128C223.83 74.128 223.531 74 223.36 73.744C223.19 73.4453 223.104 73.104 223.104 72.72C223.104 72.5067 223.126 72.3573 223.168 72.272C223.382 70.608 223.915 68.88 224.768 67.088C225.622 65.296 226.667 63.6107 227.904 62.032C229.142 60.4533 230.4 59.1733 231.68 58.192C233.131 57.0827 234.731 56.528 236.48 56.528H243.84C244.054 56.528 244.16 56.6133 244.16 56.784C244.16 57.1253 243.968 57.296 243.584 57.296C243.158 57.296 242.731 57.5733 242.304 58.128C241.878 58.64 241.558 59.0667 241.344 59.408C241.046 59.8773 240.576 60.6667 239.936 61.776C239.296 62.8853 238.635 64.1013 237.952 65.424C237.312 66.704 236.758 67.8987 236.288 69.008C235.819 70.1173 235.584 70.928 235.584 71.44C235.584 72.0373 235.883 72.336 236.48 72.336C237.12 72.336 237.846 72.0373 238.656 71.44C239.467 70.8427 240.278 70.1173 241.088 69.264C241.942 68.368 242.71 67.4933 243.392 66.64C244.118 65.744 244.694 65.04 245.12 64.528C245.376 64.784 245.355 65.1467 245.056 65.616C244.8 66.0427 244.566 66.384 244.352 66.64C243.499 67.7493 242.518 68.9013 241.408 70.096C240.299 71.248 239.083 72.2293 237.76 73.04C236.48 73.808 235.158 74.192 233.792 74.192ZM226.88 71.952C227.392 71.952 228.096 71.5893 228.992 70.864C229.931 70.096 230.934 69.1573 232 68.048C233.067 66.896 234.07 65.7013 235.008 64.464C235.947 63.184 236.715 62.032 237.312 61.008C237.952 59.9413 238.272 59.1307 238.272 58.576C238.272 58.1067 238.123 57.7867 237.824 57.616C237.568 57.4453 237.227 57.36 236.8 57.36C236.118 57.36 235.371 57.616 234.56 58.128C233.792 58.5973 233.174 59.0667 232.704 59.536C232.192 60.0053 231.574 60.752 230.848 61.776C230.166 62.7573 229.483 63.8453 228.8 65.04C228.118 66.2347 227.542 67.3867 227.072 68.496C226.603 69.6053 226.368 70.5013 226.368 71.184C226.368 71.696 226.539 71.952 226.88 71.952ZM251.325 74.128C250.045 74.128 249.17 73.8293 248.701 73.232C248.232 72.592 247.997 71.824 247.997 70.928C247.997 69.7333 248.253 68.4533 248.765 67.088C249.32 65.7227 249.768 64.656 250.109 63.888C249.554 64.4853 249.021 65.0613 248.509 65.616C247.997 66.1707 247.634 66.576 247.421 66.832C247.293 67.0027 247.186 67.088 247.101 67.088C247.016 67.088 246.973 66.9813 246.973 66.768C246.973 66.4267 247.08 66.1067 247.293 65.808C247.89 65.04 248.573 64.2293 249.341 63.376C250.109 62.5227 250.856 61.6267 251.581 60.688C252.434 59.1093 253.373 57.2747 254.397 55.184C255.464 53.0507 256.552 50.8747 257.661 48.656C258.813 46.3947 259.922 44.3253 260.989 42.448C262.098 40.528 263.08 38.992 263.933 37.84C264.658 37.5413 265.341 37.1573 265.981 36.688C266.664 36.2187 267.325 35.792 267.965 35.408C268.648 34.9813 269.352 34.768 270.077 34.768C270.546 34.768 270.888 34.896 271.101 35.152C271.357 35.408 271.528 35.7067 271.613 36.048C271.656 36.176 271.677 36.4107 271.677 36.752C271.677 37.7333 271.336 38.928 270.653 40.336C270.013 41.744 269.245 43.1307 268.349 44.496C267.496 45.8187 266.749 46.9067 266.109 47.76C264.402 50.1493 262.653 52.3253 260.861 54.288C259.069 56.208 257.448 57.8293 255.997 59.152C254.589 60.432 253.565 61.3707 252.925 61.968C252.626 62.5227 252.264 63.2693 251.837 64.208C251.453 65.104 251.112 66.064 250.813 67.088C250.514 68.0693 250.365 68.9867 250.365 69.84C250.365 70.5653 250.536 71.184 250.877 71.696C251.218 72.1653 251.794 72.4 252.605 72.4C252.733 72.4 252.861 72.4 252.989 72.4C253.117 72.4 253.266 72.3787 253.437 72.336C254.162 72.208 254.952 71.8027 255.805 71.12C256.658 70.4373 257.512 69.648 258.365 68.752C259.218 67.856 259.986 67.0027 260.669 66.192C260.968 65.8507 261.245 65.5307 261.501 65.232C261.757 64.8907 261.928 64.656 262.013 64.528C262.312 64.8267 262.29 65.2107 261.949 65.68C261.65 66.1067 261.394 66.4693 261.181 66.768C260.882 67.152 260.456 67.6853 259.901 68.368C259.346 69.008 258.706 69.712 257.981 70.48C257.17 71.2907 256.168 72.1013 254.973 72.912C253.778 73.7227 252.562 74.128 251.325 74.128ZM254.013 59.408C255.336 58.2987 257 56.72 259.005 54.672C261.053 52.5813 263.058 50.064 265.021 47.12C265.234 46.7787 265.576 46.2027 266.045 45.392C266.557 44.5813 267.069 43.664 267.581 42.64C268.136 41.5733 268.605 40.5493 268.989 39.568C269.373 38.544 269.565 37.6693 269.565 36.944C269.565 36.2613 269.373 35.92 268.989 35.92C268.52 35.92 267.901 36.3253 267.133 37.136C266.237 38.0747 265.213 39.4613 264.061 41.296C262.952 43.088 261.778 45.0933 260.541 47.312C259.304 49.5307 258.109 51.7067 256.957 53.84C255.848 55.9733 254.866 57.8293 254.013 59.408ZM267.637 74.512C265.887 74.512 264.671 74.1707 263.989 73.488C263.306 72.8053 262.965 71.9733 262.965 70.992C262.965 69.7547 263.285 68.432 263.924 67.024C264.607 65.616 265.247 64.4213 265.845 63.44C266.527 62.416 267.445 61.3493 268.597 60.24C269.749 59.1307 271.007 58.192 272.373 57.424C273.738 56.656 275.061 56.272 276.341 56.272C277.45 56.272 278.218 56.5493 278.645 57.104C279.071 57.616 279.285 58.2347 279.285 58.96C279.285 60.2827 278.879 61.3707 278.069 62.224C277.301 63.0773 276.341 63.7813 275.189 64.336C274.037 64.848 272.927 65.2747 271.861 65.616C271.221 65.7867 270.474 65.9573 269.621 66.128C268.767 66.2987 267.957 66.384 267.189 66.384C266.89 67.152 266.655 67.8987 266.485 68.624C266.314 69.3493 266.229 70.0107 266.229 70.608C266.229 71.3333 266.399 71.9307 266.741 72.4C267.125 72.8693 267.743 73.104 268.597 73.104C268.938 73.104 269.343 73.0613 269.812 72.976C270.282 72.8907 270.794 72.7627 271.349 72.592C272.629 72.1653 273.887 71.4827 275.125 70.544C276.362 69.6053 277.493 68.6027 278.517 67.536C279.583 66.4267 280.394 65.5093 280.949 64.784C281.077 64.912 281.141 65.0613 281.141 65.232C281.141 65.4453 280.991 65.7867 280.693 66.256C279.839 67.4507 278.73 68.688 277.365 69.968C275.999 71.248 274.485 72.336 272.821 73.232C271.157 74.0853 269.429 74.512 267.637 74.512ZM267.701 65.104C268.255 65.1467 268.874 65.1467 269.557 65.104C270.282 65.0187 270.986 64.8693 271.669 64.656C273.418 64.144 274.677 63.3333 275.445 62.224C276.255 61.072 276.661 60.048 276.661 59.152C276.661 58.64 276.554 58.2133 276.341 57.872C276.127 57.5307 275.786 57.36 275.317 57.36C274.079 57.36 272.97 57.8293 271.989 58.768C271.007 59.664 270.154 60.7093 269.429 61.904C268.703 63.0987 268.127 64.1653 267.701 65.104ZM283.51 74.96C283.339 74.96 283.339 74.768 283.51 74.384C283.723 74 283.915 73.5733 284.086 73.104C284.299 72.6347 284.513 72.1227 284.726 71.568C285.153 70.544 285.622 69.392 286.134 68.112C286.646 66.832 287.137 65.5947 287.606 64.4C288.075 63.1627 288.481 62.1173 288.822 61.264C289.206 60.368 289.462 59.792 289.59 59.536C288.993 60.176 288.267 60.9867 287.414 61.968C286.603 62.9067 285.835 63.824 285.11 64.72C284.385 65.616 283.83 66.32 283.446 66.832C283.318 67.0027 283.211 67.088 283.126 67.088C283.041 67.088 282.998 66.9813 282.998 66.768C282.998 66.4267 283.105 66.1067 283.318 65.808C284.129 64.784 285.025 63.632 286.006 62.352C287.03 61.072 287.947 59.8987 288.758 58.832C289.569 57.7227 290.081 56.9973 290.294 56.656C290.763 56.5707 291.446 56.4427 292.342 56.272C293.281 56.1013 293.921 55.8667 294.262 55.568C294.39 55.44 294.518 55.376 294.646 55.376C294.731 55.376 294.774 55.4613 294.774 55.632C294.817 55.76 294.774 55.9093 294.646 56.08C294.39 56.3787 293.942 57.0827 293.302 58.192C292.705 59.2587 292.043 60.4533 291.318 61.776C290.635 63.0987 289.995 64.2933 289.398 65.36C289.91 64.6773 290.465 64.016 291.062 63.376C291.659 62.736 292.235 62.1173 292.79 61.52C293.302 61.008 294.006 60.368 294.902 59.6C295.798 58.832 296.737 58.128 297.718 57.488C298.699 56.848 299.553 56.4853 300.278 56.4C300.449 56.3573 300.598 56.336 300.726 56.336C300.897 56.336 301.025 56.336 301.11 56.336C302.049 56.336 302.518 56.6773 302.518 57.36C302.518 57.872 302.241 58.5547 301.686 59.408C301.387 59.8773 300.918 60.6667 300.278 61.776C299.681 62.8427 299.062 64.016 298.422 65.296C297.825 66.5333 297.291 67.7067 296.822 68.816C296.395 69.8827 296.182 70.672 296.182 71.184C296.182 71.7813 296.481 72.08 297.078 72.08C297.803 72.08 298.593 71.7173 299.446 70.992C300.342 70.2667 301.302 69.3493 302.326 68.24C303.35 67.088 304.374 65.872 305.398 64.592C305.483 64.6773 305.526 64.8267 305.526 65.04C305.526 65.3387 305.419 65.6373 305.206 65.936C305.035 66.192 304.865 66.4267 304.694 66.64C304.267 67.1947 303.691 67.8987 302.966 68.752C302.283 69.5627 301.579 70.3733 300.854 71.184C300.129 71.952 299.467 72.5707 298.87 73.04C298.443 73.3387 297.889 73.6587 297.206 74C296.523 74.3413 295.841 74.512 295.158 74.512C294.39 74.512 293.857 74.32 293.558 73.936C293.259 73.5093 293.11 72.9973 293.11 72.4C293.11 71.7173 293.238 70.992 293.494 70.224C293.75 69.456 294.027 68.7307 294.326 68.048C294.667 67.3227 294.923 66.7893 295.094 66.448C295.862 64.9547 296.566 63.5467 297.206 62.224C297.846 60.9013 298.294 59.9627 298.55 59.408C298.678 59.152 298.742 58.9387 298.742 58.768C298.742 58.4693 298.507 58.448 298.038 58.704C297.569 58.96 296.993 59.344 296.31 59.856C295.67 60.368 295.073 60.88 294.518 61.392C293.963 61.8613 293.601 62.1813 293.43 62.352C291.851 64.016 290.465 65.872 289.27 67.92C288.118 69.9253 287.137 71.9947 286.326 74.128C285.771 74.1707 285.217 74.32 284.662 74.576C284.107 74.832 283.723 74.96 283.51 74.96ZM316.155 74.192C315.728 74.192 315.366 74.1067 315.067 73.936C314.768 73.7653 314.619 73.4453 314.619 72.976C314.619 72.3787 314.768 71.696 315.067 70.928C315.366 70.16 315.707 69.4133 316.091 68.688C316.475 67.92 316.816 67.3013 317.115 66.832C315.622 68.4107 314.064 69.904 312.443 71.312C311.632 71.9947 310.736 72.6347 309.755 73.232C308.774 73.8293 307.728 74.128 306.619 74.128C306.192 74.128 305.894 74 305.723 73.744C305.552 73.4453 305.467 73.104 305.467 72.72C305.467 72.5067 305.488 72.3573 305.531 72.272C305.744 70.608 306.278 68.88 307.131 67.088C307.984 65.296 309.03 63.6107 310.267 62.032C311.504 60.4533 312.763 59.1733 314.043 58.192C315.024 57.4667 315.963 57.0187 316.859 56.848C317.755 56.6347 318.736 56.528 319.803 56.528H321.915C322.598 55.376 323.302 54.096 324.027 52.688C324.795 51.2373 325.542 49.808 326.267 48.4C327.035 46.992 327.739 45.7547 328.379 44.688C330.128 41.7013 332.048 39.312 334.139 37.52C336.272 35.728 338.64 34.832 341.243 34.832C341.798 34.832 342.31 35.0027 342.779 35.344C343.248 35.6427 343.462 36.112 343.419 36.752L343.291 39.056C343.291 39.0987 343.248 39.1627 343.163 39.248C343.078 39.2907 343.014 39.312 342.971 39.312C342.928 39.312 342.864 39.2693 342.779 39.184C342.651 38.416 342.267 37.84 341.627 37.456C340.987 37.0293 340.198 36.816 339.259 36.816C338.96 36.816 338.619 36.8373 338.235 36.88C337.894 36.9227 337.552 37.008 337.211 37.136C336.016 37.5627 334.886 38.4373 333.819 39.76C332.752 41.04 331.6 42.7467 330.363 44.88C329.936 45.6907 329.382 46.7573 328.699 48.08C328.016 49.36 327.291 50.7467 326.523 52.24C325.798 53.7333 325.094 55.184 324.411 56.592C323.771 58 323.216 59.1947 322.747 60.176C322.534 60.688 322.171 61.4773 321.659 62.544C321.147 63.568 320.592 64.6987 319.995 65.936C319.44 67.1307 318.95 68.24 318.523 69.264C318.139 70.288 317.947 71.0133 317.947 71.44C317.947 72.0373 318.203 72.336 318.715 72.336C319.227 72.336 319.91 72.0373 320.763 71.44C321.616 70.8 322.491 70.032 323.387 69.136C324.326 68.1973 325.158 67.3013 325.883 66.448C326.651 65.5947 327.184 64.9547 327.483 64.528C327.611 64.656 327.675 64.8053 327.675 64.976C327.675 65.2747 327.547 65.5733 327.291 65.872C327.078 66.1707 326.886 66.4267 326.715 66.64C325.947 67.664 324.987 68.7733 323.835 69.968C322.726 71.12 321.51 72.1227 320.187 72.976C318.864 73.7867 317.52 74.192 316.155 74.192ZM309.243 71.952C309.755 71.952 310.459 71.5893 311.355 70.864C312.294 70.096 313.296 69.1573 314.363 68.048C315.43 66.896 316.432 65.7013 317.371 64.464C318.31 63.184 319.078 62.032 319.675 61.008C320.315 59.9413 320.635 59.1307 320.635 58.576C320.635 58.1067 320.486 57.7867 320.187 57.616C319.931 57.4453 319.59 57.36 319.163 57.36C318.48 57.36 317.734 57.616 316.923 58.128C316.155 58.5973 315.536 59.0667 315.067 59.536C314.555 60.0053 313.936 60.752 313.211 61.776C312.528 62.7573 311.846 63.8453 311.163 65.04C310.48 66.2347 309.904 67.3867 309.435 68.496C308.966 69.6053 308.731 70.5013 308.731 71.184C308.731 71.696 308.902 71.952 309.243 71.952ZM338.168 74.192C337.741 74.192 337.378 74.1067 337.08 73.936C336.781 73.7653 336.632 73.4453 336.632 72.976C336.632 72.3787 336.781 71.696 337.08 70.928C337.378 70.16 337.72 69.4133 338.104 68.688C338.488 67.92 338.829 67.3013 339.128 66.832C337.634 68.4107 336.077 69.904 334.456 71.312C333.645 71.9947 332.749 72.6347 331.768 73.232C330.786 73.8293 329.741 74.128 328.632 74.128C328.205 74.128 327.906 74 327.736 73.744C327.565 73.4453 327.48 73.104 327.48 72.72C327.48 72.5067 327.501 72.3573 327.544 72.272C327.757 70.608 328.29 68.88 329.144 67.088C329.997 65.296 331.042 63.6107 332.28 62.032C333.517 60.4533 334.776 59.1733 336.056 58.192C337.506 57.0827 339.106 56.528 340.856 56.528H348.216C348.429 56.528 348.536 56.6133 348.536 56.784C348.536 57.1253 348.344 57.296 347.96 57.296C347.533 57.296 347.106 57.5733 346.68 58.128C346.253 58.64 345.933 59.0667 345.72 59.408C345.421 59.8773 344.952 60.6667 344.312 61.776C343.672 62.8853 343.01 64.1013 342.328 65.424C341.688 66.704 341.133 67.8987 340.664 69.008C340.194 70.1173 339.96 70.928 339.96 71.44C339.96 72.0373 340.258 72.336 340.856 72.336C341.496 72.336 342.221 72.0373 343.032 71.44C343.842 70.8427 344.653 70.1173 345.464 69.264C346.317 68.368 347.085 67.4933 347.768 66.64C348.493 65.744 349.069 65.04 349.496 64.528C349.752 64.784 349.73 65.1467 349.432 65.616C349.176 66.0427 348.941 66.384 348.728 66.64C347.874 67.7493 346.893 68.9013 345.784 70.096C344.674 71.248 343.458 72.2293 342.136 73.04C340.856 73.808 339.533 74.192 338.168 74.192ZM331.256 71.952C331.768 71.952 332.472 71.5893 333.368 70.864C334.306 70.096 335.309 69.1573 336.376 68.048C337.442 66.896 338.445 65.7013 339.384 64.464C340.322 63.184 341.09 62.032 341.688 61.008C342.328 59.9413 342.648 59.1307 342.648 58.576C342.648 58.1067 342.498 57.7867 342.2 57.616C341.944 57.4453 341.602 57.36 341.176 57.36C340.493 57.36 339.746 57.616 338.936 58.128C338.168 58.5973 337.549 59.0667 337.08 59.536C336.568 60.0053 335.949 60.752 335.224 61.776C334.541 62.7573 333.858 63.8453 333.176 65.04C332.493 66.2347 331.917 67.3867 331.448 68.496C330.978 69.6053 330.744 70.5013 330.744 71.184C330.744 71.696 330.914 71.952 331.256 71.952ZM351.86 74.896C351.689 74.896 351.689 74.7253 351.86 74.384C352.073 74 352.265 73.5733 352.436 73.104C352.649 72.6347 352.863 72.1227 353.076 71.568C353.503 70.544 353.972 69.392 354.484 68.112C354.996 66.832 355.487 65.5947 355.956 64.4C356.425 63.1627 356.831 62.1173 357.172 61.264C357.556 60.368 357.812 59.792 357.94 59.536C357.343 60.176 356.617 60.9867 355.764 61.968C354.953 62.9067 354.185 63.824 353.46 64.72C352.735 65.616 352.18 66.32 351.796 66.832C351.668 67.0027 351.561 67.088 351.476 67.088C351.391 67.088 351.348 66.9813 351.348 66.768C351.348 66.4267 351.455 66.1067 351.668 65.808C352.479 64.784 353.375 63.632 354.356 62.352C355.38 61.072 356.297 59.8987 357.108 58.832C357.919 57.7227 358.431 56.9973 358.644 56.656C359.113 56.5707 359.796 56.4427 360.692 56.272C361.631 56.1013 362.271 55.8667 362.612 55.568C362.74 55.44 362.868 55.376 362.996 55.376C363.081 55.376 363.124 55.4613 363.124 55.632C363.167 55.76 363.124 55.9093 362.996 56.08C362.74 56.336 362.356 56.8907 361.844 57.744C361.375 58.5973 360.841 59.5787 360.244 60.688C359.647 61.7973 359.071 62.864 358.516 63.888C358.943 63.248 359.497 62.5013 360.18 61.648C360.905 60.752 361.695 59.8987 362.548 59.088C363.401 58.2347 364.255 57.5307 365.108 56.976C366.004 56.4213 366.836 56.144 367.604 56.144C368.159 56.144 368.628 56.272 369.012 56.528C369.396 56.7413 369.695 57.1467 369.908 57.744C370.036 58.0427 370.1 58.384 370.1 58.768C370.1 59.4933 369.908 60.1973 369.524 60.88C369.183 61.52 368.927 62.0107 368.756 62.352C368.713 62.48 368.564 62.608 368.308 62.736C368.052 62.8213 367.945 62.7787 367.988 62.608C368.031 62.3947 368.052 62.1813 368.052 61.968C368.095 61.7547 368.116 61.52 368.116 61.264C368.116 60.5387 367.967 59.8773 367.668 59.28C367.412 58.6827 366.921 58.384 366.196 58.384C365.513 58.384 364.681 58.8107 363.7 59.664C362.719 60.5173 361.737 61.4987 360.756 62.608C359.519 64.0587 358.537 65.4453 357.812 66.768C357.087 68.048 356.489 69.3067 356.02 70.544C355.764 71.2267 355.508 71.9093 355.252 72.592C354.996 73.232 354.804 73.744 354.676 74.128C354.121 74.1707 353.567 74.2987 353.012 74.512C352.457 74.768 352.073 74.896 351.86 74.896Z" fill="black"/>
<defs>
<clipPath id="clip0_0_1">
<rect width="120" height="120" fill="white"/>
</clipPath>
</defs>
</svg>
